HIERARCHY
ROOT Hips
{
  OFFSET -31.5692 30.0904 122.763
  CHANNELS 6 Xposition Yposition Zposition Zrotation Xrotation Yrotation
  JOINT LeftUpLeg
  {
    OFFSET 8.64259 1.95398 -2.38835
    CHANNELS 3 Zrotation Xrotation Yrotation
    JOINT LeftLeg
    {
      OFFSET 43.7702 0 0
      CHANNELS 3 Zrotation Xrotation Yrotation
      JOINT LeftFoot
      {
        OFFSET 40.6238 0 0
        CHANNELS 3 Zrotation Xrotation Yrotation
        JOINT LeftToeBase
        {
          OFFSET 12.7242 0 0
          CHANNELS 3 Zrotation Xrotation Yrotation
          End Site
          {
            OFFSET 0 0 0
          }
        }
      }
    }
  }
  JOINT RightUpLeg
  {
    OFFSET -8.2249 1.95398 -2.59336
    CHANNELS 3 Zrotation Xrotation Yrotation
    JOINT RightLeg
    {
      OFFSET 43.5653 0 0
      CHANNELS 3 Zrotation Xrotation Yrotation
      JOINT RightFoot
      {
        OFFSET 40.6238 0 0
        CHANNELS 3 Zrotation Xrotation Yrotation
        JOINT RightToeBase
        {
          OFFSET 12.7242 0 0
          CHANNELS 3 Zrotation Xrotation Yrotation
          End Site
          {
            OFFSET 0 0 0
          }
        }
      }
    }
  }
  JOINT Spine
  {
    OFFSET 0.165834 0.87714 6.61349
    CHANNELS 3 Zrotation Xrotation Yrotation
    JOINT Spine1
    {
      OFFSET 7.38963 1.71661e-005 0
      CHANNELS 3 Zrotation Xrotation Yrotation
      JOINT Spine2
      {
        OFFSET 11.9445 1.14441e-005 0
        CHANNELS 3 Zrotation Xrotation Yrotation
        JOINT Spine3
        {
          OFFSET 14.7254 4.19617e-005 0
          CHANNELS 3 Zrotation Xrotation Yrotation
          JOINT Spine4
          {
            OFFSET 10.9679 0 0
            CHANNELS 3 Zrotation Xrotation Yrotation
            JOINT RightShoulder
            {
              OFFSET 2.46616 -1.6653 3.69651
              CHANNELS 3 Zrotation Xrotation Yrotation
              JOINT RightArm
              {
                OFFSET 13.0012 0 0
                CHANNELS 3 Zrotation Xrotation Yrotation
                JOINT RightForeArm
                {
                  OFFSET 28.7848 1.62311e-005 0
                  CHANNELS 3 Zrotation Xrotation Yrotation
                  JOINT RightHand
                  {
                    OFFSET 26.5688 1.62095e-005 0
                    CHANNELS 3 Zrotation Xrotation Yrotation
                    End Site
                    {
                      OFFSET 0 0 0
                    }
                  }
                }
              }
            }
            JOINT LeftShoulder
            {
              OFFSET 2.38034 -1.29275 -3.7523
              CHANNELS 3 Zrotation Xrotation Yrotation
              JOINT LeftArm
              {
                OFFSET 16.3182 6.07031e-005 0
                CHANNELS 3 Zrotation Xrotation Yrotation
                JOINT LeftForeArm
                {
                  OFFSET 27.0901 0 0
                  CHANNELS 3 Zrotation Xrotation Yrotation
                  JOINT LeftHand
                  {
                    OFFSET 24.5451 1.51738e-005 0
                    CHANNELS 3 Zrotation Xrotation Yrotation
                    End Site
                    {
                      OFFSET 0 0 0
                    }
                  }
                }
              }
            }
            JOINT Neck
            {
              OFFSET 5.0226 -0.0266342 0
              CHANNELS 3 Zrotation Xrotation Yrotation
              JOINT Head
              {
                OFFSET 6.69364 2.86102e-005 0
                CHANNELS 3 Zrotation Xrotation Yrotation
                End Site
                {
                  OFFSET 0 0 0
                }
              }
            }
          }
        }
      }
    }
  }
}
MOTION
Frames:	15
Frame Time:	0.0416667
44.553 83.7607 11.6183 88.836 -27.0276 99.4399 -157.681 25.7744 73.6385 -57.063 4.73151 -14.1282 87.1996 18.9358 5.02977 4.54857 -4.78478 -12.6284 -179.935 17.7048 79.0669 -81.2918 -25.5825 -10.4738 72.047 -7.23508 -1.41644 27.9621 -1.1039 7.30503 0.287622 8.5463 -92.5206 9.74321 -0.56695 -4.95433 -1.93692 -0.784202 -4.92469 -24.3979 0.946354 -4.89618 -4.38528 0.946379 -4.89618 92.2541 -27.9982 -102.915 21.8582 -14.048 -23.9115 -29.2567 -25.561 -66.8088 -35.5163 4.12597 -26.1282 -86.9556 -48.317 83.0158 -25.0984 19.7972 20.9465 14.6573 20.3277 -34.0269 28.0365 -9.1708 -33.8404 18.4004 26.5081 0.776535 -17.2583 23.1526 21.8004 
47.6767 83.9063 12.2743 88.0695 -21.1207 96.8853 -160.238 20.6535 72.0235 -53.0584 9.74233 -13.9408 86.3187 20.917 9.44892 4.66571 -2.54996 -16.4125 -173.352 20.4647 78.4752 -89.2946 -11.3632 -10.5592 73.7815 -7.83533 -5.43107 18.226 2.14546 9.25934 -0.0510852 8.61721 -92.1437 9.60106 -1.06916 -4.16844 -2.07594 -1.25143 -4.11748 -24.5575 0.231775 -4.2969 -4.54486 0.231809 -4.2969 91.4786 -29.9229 -103.843 24.3356 -7.41501 -15.36 -24.4997 -25.4903 -60.66 -33.9756 4.06598 -25.9676 -87.8111 -50.1967 82.0426 -19.3414 18.0753 9.68885 12.4444 19.2278 -30.9578 32.1304 -10.4602 -33.6621 20.5575 27.1135 1.39921 -16.0988 23.8986 19.6715 
50.541 83.8875 12.6722 87.0149 -14.5388 95.6021 -163.184 16.3091 71.7014 -51.4786 10.4904 -12.7778 90.7147 22.3369 4.13205 -0.710667 -3.43075 -18.1054 -167.222 24.7936 78.5319 -97.2898 -2.6458 -9.78829 76.6548 -9.8459 -7.86361 13.2172 3.88867 9.89082 -0.461182 8.6309 -91.9746 9.56657 -1.80993 -3.77654 -2.10834 -1.97426 -3.69338 -24.6013 -0.592332 -4.14525 -4.58863 -0.592345 -4.14525 91.4305 -30.9471 -103.594 26.1241 -2.5062 -6.45299 -25.2828 -28.032 -57.7197 -32.9819 3.38451 -24.3597 -88.2544 -51.6581 81.6449 -13.9963 14.5981 0.944284 14.4584 19.4488 -32.9715 32.9987 -12.191 -37.4129 21.6733 27.6608 2.63137 -15.0162 24.354 17.7335 
53.2716 83.7402 13.0503 85.4981 -7.60321 95.1128 -165.559 12.8951 71.9818 -49.1015 15.3946 -11.9021 91.6167 24.3767 5.86134 -2.80946 -2.11774 -21.2639 -162.519 31.0236 77.4933 -103.482 -0.0132868 -8.76769 78.6445 -11.5721 -8.86477 15.1824 3.68097 8.24061 -0.829847 8.63143 -91.9367 9.55653 -2.52768 -3.64654 -2.11676 -2.68562 -3.53192 -24.6178 -1.31601 -4.23662 -4.60512 -1.31602 -4.23663 92.3983 -31.2065 -101.604 27.7375 1.43195 1.54455 -23.8 -29.0233 -53.2714 -32.3151 3.60776 -25.4751 -88.7201 -51.031 80.841 -10.7372 11.0045 -7.05957 16.5919 16.7024 -37.4224 32.1193 -12.75 -40.0018 23.9688 27.9091 2.51724 -14.4313 24.6353 17.2073 
56.3586 83.3984 13.6217 84.6887 -0.466218 95.5152 -167.685 9.14933 73.3168 -48.735 18.3323 -10.1884 94.3005 25.6446 3.72495 -4.50704 -2.69275 -21.2012 -159.803 37.8804 76.0754 -106.883 -1.8093 -8.06529 79.1676 -12.5233 -10.1003 17.4649 2.58674 8.8269 -1.2596 8.80261 -91.9479 9.202 -3.3844 -3.61646 -2.46917 -3.54019 -3.46412 -24.9807 -2.14228 -4.46516 -4.96807 -2.14227 -4.46516 92.7742 -31.1683 -100.873 29.5191 4.6198 9.64245 -21.9863 -28.7111 -49.3742 -32.9435 3.49956 -24.2237 -89.4352 -49.2915 79.4256 -7.01489 6.04793 -15.2883 17.2383 13.2447 -40.9681 31.3041 -13.578 -43.3202 28.0002 27.5125 0.822588 -14.7774 24.5356 17.7231 
59.84 83.1635 14.0577 84.389 6.24663 95.955 -170.116 5.3347 75.1134 -48.7763 21.2181 -7.69389 95.7699 26.4557 2.81961 -5.09353 -2.25756 -22.1277 -158.931 44.7896 75.0687 -105.995 -1.17948 -7.74283 82.2467 -13.8579 -7.43463 17.6664 2.84274 7.73475 -1.66627 8.89906 -91.9845 8.99581 -4.20881 -3.63849 -2.6729 -4.36478 -3.44975 -25.1973 -2.92205 -4.73391 -5.18469 -2.92206 -4.73392 92.8517 -30.8153 -100.824 31.8919 8.09615 19.3991 -20.4791 -26.9936 -46.5146 -31.6021 3.48115 -24.3474 -90.0026 -46.7048 77.9911 -3.75357 -0.745672 -21.5394 17.9659 12.3963 -45.436 29.5684 -14.2879 -47.6319 29.9553 26.4354 -1.32392 -14.7388 24.1399 18.4374 
63.802 83.0848 14.0294 83.4329 11.3468 97.3539 -172.304 1.54793 77.2065 -47.0895 23.3788 -5.13347 95.5541 26.4595 2.82556 0.752362 -1.59195 -20.303 -159.225 51.853 74.315 -100.484 -2.29432 -7.77267 84.386 -14.5913 -5.09405 21.9761 1.21976 7.37386 -1.98225 8.92817 -92.117 8.92112 -4.8971 -3.85785 -2.74568 -5.06204 -3.6385 -25.278 -3.51289 -5.14989 -5.26534 -3.51287 -5.14988 93.2077 -30.4665 -100.214 33.3781 10.17 27.6609 -19.8171 -25.3174 -45.9368 -31.0085 4.00559 -26.3845 -89.6606 -44.3254 77.9775 -1.23478 -7.98018 -27.4951 19.4995 13.2639 -50.6905 32.5936 -16.0677 -48.292 31.621 25.6632 -3.60665 -15.7604 24.0134 19.2698 
68.6282 83.6801 13.2719 82.4717 14.2299 99.5465 -173.37 -2.59552 79.7702 -43.1225 30.6434 -3.35601 87.7045 24.3102 10.4412 9.65047 -0.510814 -17.1506 -161.876 56.954 76.5454 -90.2601 -3.69015 -7.6022 84.7577 -13.8453 -1.96636 25.1351 0.519703 4.99368 -2.17444 8.99538 -92.3977 8.76047 -5.40247 -4.38855 -2.90585 -5.5902 -4.14646 -25.4331 -3.83615 -5.8072 -5.42045 -3.83613 -5.80719 93.7712 -29.9338 -99.2295 33.4752 10.6827 33.7708 -18.9144 -23.3613 -46.5691 -30.9223 4.35727 -27.3698 -88.7471 -41.8696 78.8808 -2.13369 -14.5517 -33.3064 17.5621 10.4061 -51.8372 32.5878 -16.3093 -49.2979 33.0734 25.886 -3.25876 -16.2071 24.1087 18.336 
74.1359 84.5799 11.5333 81.5485 14.7384 100.754 -175.579 -6.86642 79.6592 -37.7196 30.4022 -1.25836 80.3411 19.2098 13.4968 13.9153 2.97353 -21.7867 -164.624 58.9487 79.1769 -77.7175 -9.1175 -7.27018 83.1925 -12.3069 1.8163 28.7992 -0.797903 3.99965 -2.21629 8.94856 -92.5926 8.83925 -5.57392 -4.75844 -2.82756 -5.77774 -4.50852 -25.3462 -3.88914 -6.21079 -5.33354 -3.88915 -6.21079 93.6931 -29.5807 -99.4834 31.8849 9.91693 38.5111 -21.8222 -25.5163 -49.8913 -30.8941 4.47079 -28.7652 -88.2077 -38.9205 79.1047 -7.29875 -18.5565 -35.6664 17.886 8.34416 -54.9232 29.9387 -15.4516 -50.5474 33.3791 26.1999 -2.64448 -16.5548 24.148 17.993 
80.4774 85.5956 9.1318 80.9944 14.6226 102.122 -177.356 -9.29539 79.8223 -35.1676 25.6325 0.989068 71.7264 9.32181 7.51457 17.6794 5.87844 -26.762 -168.708 56.8143 83.6668 -65.1646 -19.7597 -6.71399 82.0714 -13.3827 0.498307 30.9461 -1.55006 3.06136 -2.16905 8.84485 -92.8206 9.03064 -5.58493 -5.19774 -2.63771 -5.808 -4.94707 -25.1402 -3.76843 -6.6321 -5.12756 -3.76844 -6.63212 93.4416 -29.2529 -100.091 29.4864 7.29634 40.4619 -22.8652 -26.5811 -52.1832 -30.4995 4.71199 -30.6393 -87.7977 -39.196 79.8661 -8.58848 -16.6506 -36.2027 17.1577 9.05763 -57.7037 32.9578 -16.6396 -49.7683 33.1498 26.3829 -1.86335 -16.9708 24.0181 17.4109 
86.8642 86.0315 6.73604 80.9968 14.0675 102.906 -177.528 -9.17017 80.3568 -37.2443 25.6224 1.69515 62.1257 1.19201 4.91452 21.6104 4.42749 -20.4186 -171.922 52.4925 88.0361 -54.5699 -24.7766 -5.83428 80.1002 -13.4187 -1.63286 30.288 -1.02537 1.75293 -2.0202 8.78401 -92.8933 9.15248 -5.32319 -5.35323 -2.51763 -5.55334 -5.11405 -25.008 -3.47231 -6.70141 -4.9953 -3.47232 -6.70142 92.4647 -30.0159 -101.837 26.039 3.52011 39.3674 -25.4242 -28.5313 -55.7279 -33.5115 4.91493 -29.8211 -87.6896 -40.9191 80.4273 -8.77765 -10.1827 -34.6113 19.6461 8.97489 -59.2699 36.238 -18.4497 -49.7864 34.2412 26.1981 -2.24899 -18.0202 23.9684 16.2429 
92.2686 85.6424 4.72283 80.9501 13.4678 102.707 -176.725 -5.03097 80.774 -45.558 26.8416 1.19103 55.4778 -3.65003 0.941175 25.9679 0.703495 -6.22253 -169.367 51.2471 87.3214 -56.8848 -29.7643 -8.52721 71.5793 -6.8831 1.79133 32.288 -2.27712 3.7245 -1.82498 8.72421 -92.718 9.29286 -4.85817 -5.0312 -2.37792 -5.07463 -4.81279 -24.8704 -3.12485 -6.25526 -4.8578 -3.12486 -6.25526 91.8912 -27.8073 -103.73 25.8419 3.31276 34.1425 -29.5181 -29.9881 -59.1486 -34.7838 4.42951 -27.9533 -88.285 -43.783 80.064 -9.09691 -0.806224 -29.6002 23.9238 9.34416 -60.273 36.0175 -18.4573 -49.5822 36.198 25.6361 -3.45064 -18.4374 23.9009 15.8237 
97.7213 84.7542 2.65454 82.0895 14.2316 102.562 -174.464 2.61234 82.1852 -63.9163 29.1704 1.38273 54.4213 -4.75814 1.69752 32.0319 3.82238 -8.38593 -167.665 47.3825 87.2897 -60.3868 -20.6055 -8.96717 76.7259 -9.70792 2.54389 39.3465 -5.06168 2.29146 -1.50212 8.80296 -92.4737 9.16572 -4.10288 -4.60779 -2.50628 -4.30152 -4.423 -24.9997 -2.53088 -5.62532 -4.98709 -2.53088 -5.62532 90.6491 -28.9643 -105.855 22.7634 2.87635 28.1826 -31.4051 -28.4964 -62.008 -37.4944 4.55962 -26.6109 -89.9962 -46.3014 77.9117 -11.3255 9.18469 -22.7254 24.9936 9.36611 -59.0067 35.158 -17.7255 -48.8559 37.5676 24.2528 -2.99648 -17.3119 22.7049 14.1056 
102.464 84.6744 0.48844 83.196 15.8291 103.994 -172.066 12.7843 85.234 -82.3791 28.7006 2.72728 57.444 -2.92347 3.38976 23.9455 0.173893 -6.56884 -169.819 43.3466 89.6232 -61.9173 -17.8886 -8.10578 80.1444 -11.7358 3.13213 39.1834 -4.96495 2.02581 -1.02674 8.85416 -92.3923 9.08157 -3.11667 -4.51951 -2.59301 -3.31237 -4.37823 -25.0755 -1.61646 -5.24535 -5.06283 -1.61646 -5.24536 90.1743 -29.8461 -106.47 18.7795 1.57598 19.9965 -36.3919 -29.9034 -66.1777 -39.6091 4.30665 -25.5892 -90.7854 -49.4708 77.4311 -14.5731 17.6333 -16.1254 24.416 12.1557 -53.5059 31.4461 -15.2127 -47.1002 37.3106 22.4877 -1.7521 -15.1321 20.8895 12.2275 
106.828 84.533 -1.81806 83.75 18.8889 105.014 -171.264 24.7543 87.5847 -96.9741 23.1763 3.8372 59.5188 -1.88922 3.60483 23.1059 -1.16336 -3.98926 -174.123 38.6155 90.6162 -62.3452 -17.8985 -6.69547 83.702 -14.0662 3.19536 41.6485 -6.0479 2.51486 -0.625145 8.94467 -92.3889 8.91545 -2.31083 -4.57214 -2.76112 -2.50962 -4.46628 -25.2351 -0.831907 -5.054 -5.22245 -0.831894 -5.05399 89.6394 -28.2754 -108.168 13.8889 2.18948 10.9791 -37.0114 -27.5254 -68.2375 -37.4164 4.06228 -25.76 -91.2675 -52.2892 77.3639 -19.9598 20.0502 -8.56094 21.8094 14.7399 -47.3933 30.8049 -14.5342 -46.1314 37.1054 20.7003 0.577208 -12.3584 18.6483 9.1909 
